<svg width="104" height="77" viewBox="0 0 104 77" fill="none" xmlns="http://www.w3.org/2000/svg">
<g clip-path="url(#clip0_21_1063)">
<path d="M8.778 71.8421C7.644 71.8421 6.587 71.6601 5.607 71.2961C4.641 70.9181 3.801 70.3861 3.087 69.7001C2.373 69.0141 1.813 68.2091 1.407 67.2851C1.015 66.3611 0.819 65.3461 0.819 64.2401C0.819 63.1341 1.015 62.1191 1.407 61.1951C1.813 60.2711 2.373 59.4661 3.087 58.7801C3.815 58.0941 4.662 57.5691 5.628 57.2051C6.594 56.8271 7.651 56.6381 8.799 56.6381C10.073 56.6381 11.221 56.8621 12.243 57.3101C13.279 57.7441 14.147 58.3881 14.847 59.2421L12.663 61.2581C12.159 60.6841 11.599 60.2571 10.983 59.9771C10.367 59.6831 9.695 59.5361 8.967 59.5361C8.281 59.5361 7.651 59.6481 7.077 59.8721C6.503 60.0961 6.006 60.4181 5.586 60.8381C5.166 61.2581 4.837 61.7551 4.599 62.3291C4.375 62.9031 4.263 63.5401 4.263 64.2401C4.263 64.9401 4.375 65.5771 4.599 66.1511C4.837 66.7251 5.166 67.2221 5.586 67.6421C6.006 68.0621 6.503 68.3841 7.077 68.6081C7.651 68.8321 8.281 68.9441 8.967 68.9441C9.695 68.9441 10.367 68.8041 10.983 68.5241C11.599 68.2301 12.159 67.7891 12.663 67.2011L14.847 69.2171C14.147 70.0711 13.279 70.7221 12.243 71.1701C11.221 71.6181 10.066 71.8421 8.778 71.8421ZM21.8997 71.7581C20.6957 71.7581 19.6247 71.5061 18.6867 71.0021C17.7627 70.4981 17.0277 69.8121 16.4817 68.9441C15.9497 68.0621 15.6837 67.0611 15.6837 65.9411C15.6837 64.8071 15.9497 63.8061 16.4817 62.9381C17.0277 62.0561 17.7627 61.3701 18.6867 60.8801C19.6247 60.3761 20.6957 60.1241 21.8997 60.1241C23.0897 60.1241 24.1537 60.3761 25.0917 60.8801C26.0297 61.3701 26.7647 62.0491 27.2967 62.9171C27.8287 63.7851 28.0947 64.7931 28.0947 65.9411C28.0947 67.0611 27.8287 68.0621 27.2967 68.9441C26.7647 69.8121 26.0297 70.4981 25.0917 71.0021C24.1537 71.5061 23.0897 71.7581 21.8997 71.7581ZM21.8997 69.0701C22.4457 69.0701 22.9357 68.9441 23.3697 68.6921C23.8037 68.4401 24.1467 68.0831 24.3987 67.6211C24.6507 67.1451 24.7767 66.5851 24.7767 65.9411C24.7767 65.2831 24.6507 64.7231 24.3987 64.2611C24.1467 63.7991 23.8037 63.4421 23.3697 63.1901C22.9357 62.9381 22.4457 62.8121 21.8997 62.8121C21.3537 62.8121 20.8637 62.9381 20.4297 63.1901C19.9957 63.4421 19.6457 63.7991 19.3797 64.2611C19.1277 64.7231 19.0017 65.2831 19.0017 65.9411C19.0017 66.5851 19.1277 67.1451 19.3797 67.6211C19.6457 68.0831 19.9957 68.4401 20.4297 68.6921C20.8637 68.9441 21.3537 69.0701 21.8997 69.0701ZM35.1355 71.7581C34.0715 71.7581 33.1125 71.5201 32.2585 71.0441C31.4045 70.5541 30.7255 69.8751 30.2215 69.0071C29.7315 68.1391 29.4865 67.1171 29.4865 65.9411C29.4865 64.7511 29.7315 63.7221 30.2215 62.8541C30.7255 61.9861 31.4045 61.3141 32.2585 60.8381C33.1125 60.3621 34.0715 60.1241 35.1355 60.1241C36.0875 60.1241 36.9205 60.3341 37.6345 60.7541C38.3485 61.1741 38.9015 61.8111 39.2935 62.6651C39.6855 63.5191 39.8815 64.6111 39.8815 65.9411C39.8815 67.2571 39.6925 68.3491 39.3145 69.2171C38.9365 70.0711 38.3905 70.7081 37.6765 71.1281C36.9765 71.5481 36.1295 71.7581 35.1355 71.7581ZM35.7025 69.0701C36.2345 69.0701 36.7175 68.9441 37.1515 68.6921C37.5855 68.4401 37.9285 68.0831 38.1805 67.6211C38.4465 67.1451 38.5795 66.5851 38.5795 65.9411C38.5795 65.2831 38.4465 64.7231 38.1805 64.2611C37.9285 63.7991 37.5855 63.4421 37.1515 63.1901C36.7175 62.9381 36.2345 62.8121 35.7025 62.8121C35.1565 62.8121 34.6665 62.9381 34.2325 63.1901C33.7985 63.4421 33.4485 63.7991 33.1825 64.2611C32.9305 64.7231 32.8045 65.2831 32.8045 65.9411C32.8045 66.5851 32.9305 67.1451 33.1825 67.6211C33.4485 68.0831 33.7985 68.4401 34.2325 68.6921C34.6665 68.9441 35.1565 69.0701 35.7025 69.0701ZM38.6635 71.5901V69.2801L38.7265 65.9201L38.5165 62.5811V56.0081H41.7925V71.5901H38.6635ZM50.4315 71.7581C49.1435 71.7581 48.0095 71.5061 47.0295 71.0021C46.0635 70.4981 45.3145 69.8121 44.7825 68.9441C44.2505 68.0621 43.9845 67.0611 43.9845 65.9411C43.9845 64.8071 44.2435 63.8061 44.7615 62.9381C45.2935 62.0561 46.0145 61.3701 46.9245 60.8801C47.8345 60.3761 48.8635 60.1241 50.0115 60.1241C51.1175 60.1241 52.1115 60.3621 52.9935 60.8381C53.8895 61.3001 54.5965 61.9721 55.1145 62.8541C55.6325 63.7221 55.8915 64.7651 55.8915 65.9831C55.8915 66.1091 55.8845 66.2561 55.8705 66.4241C55.8565 66.5781 55.8425 66.7251 55.8285 66.8651H46.6515V64.9541H54.1065L52.8465 65.5211C52.8465 64.9331 52.7275 64.4221 52.4895 63.9881C52.2515 63.5541 51.9225 63.2181 51.5025 62.9801C51.0825 62.7281 50.5925 62.6021 50.0325 62.6021C49.4725 62.6021 48.9755 62.7281 48.5415 62.9801C48.1215 63.2181 47.7925 63.5611 47.5545 64.0091C47.3165 64.4431 47.1975 64.9611 47.1975 65.5631V66.0671C47.1975 66.6831 47.3305 67.2291 47.5965 67.7051C47.8765 68.1671 48.2615 68.5241 48.7515 68.7761C49.2555 69.0141 49.8435 69.1331 50.5155 69.1331C51.1175 69.1331 51.6425 69.0421 52.0905 68.8601C52.5525 68.6781 52.9725 68.4051 53.3505 68.0411L55.0935 69.9311C54.5755 70.5191 53.9245 70.9741 53.1405 71.2961C52.3565 71.6041 51.4535 71.7581 50.4315 71.7581ZM62.6925 71.7581C61.3625 71.7581 60.3265 71.4221 59.5845 70.7501C58.8425 70.0641 58.4715 69.0491 58.4715 67.7051V57.7931H61.7475V67.6631C61.7475 68.1391 61.8735 68.5101 62.1255 68.7761C62.3775 69.0281 62.7205 69.1541 63.1545 69.1541C63.6725 69.1541 64.1135 69.0141 64.4775 68.7341L65.3595 71.0441C65.0235 71.2821 64.6175 71.4641 64.1415 71.5901C63.6795 71.7021 63.1965 71.7581 62.6925 71.7581ZM56.7285 63.0641V60.5441H64.5615V63.0641H56.7285ZM72.4569 71.7581C71.1689 71.7581 70.0349 71.5061 69.0549 71.0021C68.0889 70.4981 67.3399 69.8121 66.8079 68.9441C66.2759 68.0621 66.0099 67.0611 66.0099 65.9411C66.0099 64.8071 66.2689 63.8061 66.7869 62.9381C67.3189 62.0561 68.0399 61.3701 68.9499 60.8801C69.8599 60.3761 70.8889 60.1241 72.0369 60.1241C73.1429 60.1241 74.1369 60.3621 75.0189 60.8381C75.9149 61.3001 76.6219 61.9721 77.1399 62.8541C77.6579 63.7221 77.9169 64.7651 77.9169 65.9831C77.9169 66.1091 77.9099 66.2561 77.8959 66.4241C77.8819 66.5781 77.8679 66.7251 77.8539 66.8651H68.6769V64.9541H76.1319L74.8719 65.5211C74.8719 64.9331 74.7529 64.4221 74.5149 63.9881C74.2769 63.5541 73.9479 63.2181 73.5279 62.9801C73.1079 62.7281 72.6179 62.6021 72.0579 62.6021C71.4979 62.6021 71.0009 62.7281 70.5669 62.9801C70.1469 63.2181 69.8179 63.5611 69.5799 64.0091C69.3419 64.4431 69.2229 64.9611 69.2229 65.5631V66.0671C69.2229 66.6831 69.3559 67.2291 69.6219 67.7051C69.9019 68.1671 70.2869 68.5241 70.7769 68.7761C71.2809 69.0141 71.8689 69.1331 72.5409 69.1331C73.1429 69.1331 73.6679 69.0421 74.1159 68.8601C74.5779 68.6781 74.9979 68.4051 75.3759 68.0411L77.1189 69.9311C76.6009 70.5191 75.9499 70.9741 75.1659 71.2961C74.3819 71.6041 73.4789 71.7581 72.4569 71.7581ZM85.5579 71.7581C84.3399 71.7581 83.2549 71.5131 82.3029 71.0231C81.3509 70.5191 80.6019 69.8261 80.0559 68.9441C79.5239 68.0621 79.2579 67.0611 79.2579 65.9411C79.2579 64.8071 79.5239 63.8061 80.0559 62.9381C80.6019 62.0561 81.3509 61.3701 82.3029 60.8801C83.2549 60.3761 84.3399 60.1241 85.5579 60.1241C86.7479 60.1241 87.7839 60.3761 88.6659 60.8801C89.5479 61.3701 90.1989 62.0771 90.6189 63.0011L88.0779 64.3661C87.7839 63.8341 87.4129 63.4421 86.9649 63.1901C86.5309 62.9381 86.0549 62.8121 85.5369 62.8121C84.9769 62.8121 84.4729 62.9381 84.0249 63.1901C83.5769 63.4421 83.2199 63.7991 82.9539 64.2611C82.7019 64.7231 82.5759 65.2831 82.5759 65.9411C82.5759 66.5991 82.7019 67.1591 82.9539 67.6211C83.2199 68.0831 83.5769 68.4401 84.0249 68.6921C84.4729 68.9441 84.9769 69.0701 85.5369 69.0701C86.0549 69.0701 86.5309 68.9511 86.9649 68.7131C87.4129 68.4611 87.7839 68.0621 88.0779 67.5161L90.6189 68.9021C90.1989 69.8121 89.5479 70.5191 88.6659 71.0231C87.7839 71.5131 86.7479 71.7581 85.5579 71.7581ZM99.3106 60.1241C100.207 60.1241 101.005 60.3061 101.705 60.6701C102.419 61.0201 102.979 61.5661 103.385 62.3081C103.791 63.0361 103.994 63.9741 103.994 65.1221V71.5901H100.718V65.6261C100.718 64.7161 100.515 64.0441 100.109 63.6101C99.7166 63.1761 99.1566 62.9591 98.4286 62.9591C97.9106 62.9591 97.4416 63.0711 97.0216 63.2951C96.6156 63.5051 96.2936 63.8341 96.0556 64.2821C95.8316 64.7301 95.7196 65.3041 95.7196 66.0041V71.5901H92.4436V56.0081H95.7196V63.4211L94.9846 62.4761C95.3906 61.7201 95.9716 61.1391 96.7276 60.7331C97.4836 60.3271 98.3446 60.1241 99.3106 60.1241Z" fill="white"/>
<path d="M33.23 48.4701C32.0994 47.6494 31.036 46.7398 30.05 45.7501C27.5592 43.2674 25.582 40.3181 24.2313 37.071C22.8807 33.8238 22.1831 30.3423 22.1785 26.8255C22.1738 23.3086 22.8622 19.8253 24.2043 16.5746C25.5463 13.3239 27.5157 10.3694 30 7.8801C32.4814 5.38796 35.4296 3.40918 38.6761 2.05683C41.9225 0.704486 45.4036 0.00508155 48.9205 -0.00141911C52.4374 -0.00791977 55.921 0.678611 59.1725 2.01894C62.4239 3.35928 65.3794 5.32715 67.87 7.8101C68.1326 8.07275 68.341 8.38455 68.4831 8.72771C68.6253 9.07087 68.6984 9.43867 68.6984 9.81011C68.6984 10.1815 68.6253 10.5493 68.4831 10.8925C68.341 11.2357 68.1326 11.5475 67.87 11.8101C67.6074 12.0727 67.2956 12.2811 66.9524 12.4232C66.6092 12.5654 66.2414 12.6385 65.87 12.6385C65.4986 12.6385 65.1308 12.5654 64.7876 12.4232C64.4445 12.2811 64.1326 12.0727 63.87 11.8101C59.8971 7.8491 54.5133 5.62857 48.9032 5.63701C43.293 5.64544 37.916 7.88216 33.955 11.8551C29.994 15.828 27.7735 21.2118 27.7819 26.8219C27.7903 32.4321 30.0271 37.8091 34 41.7701C35.9681 43.7315 38.3033 45.2859 40.8724 46.3445C43.4414 47.4031 46.1939 47.9451 48.9724 47.9395C51.751 47.9339 54.5013 47.3809 57.066 46.312C59.6308 45.2432 61.9598 43.6794 63.92 41.7101C64.4504 41.1797 65.1699 40.8817 65.92 40.8817C66.6701 40.8817 67.3896 41.1797 67.92 41.7101C68.4504 42.2405 68.7484 42.96 68.7484 43.7101C68.7484 44.4602 68.4504 45.1797 67.92 45.7101C63.4137 50.2244 57.4455 52.9841 51.0874 53.4937C44.7292 54.0032 38.3977 52.2291 33.23 48.4901V48.4701Z" fill="url(#paint0_linear_21_1063)"/>
<path d="M39.7599 39.41C39.1037 38.9392 38.4882 38.414 37.9199 37.84C35.0026 34.9399 33.3567 30.9996 33.3446 26.886C33.3324 22.7724 34.9548 18.8224 37.8549 15.905C40.7551 12.9877 44.6954 11.3418 48.809 11.3297C52.9226 11.3175 56.8726 12.9399 59.7899 15.84C60.1972 16.3909 60.3933 17.0697 60.3424 17.7529C60.2915 18.4361 59.997 19.0783 59.5126 19.5627C59.0282 20.0471 58.3859 20.3416 57.7028 20.3925C57.0196 20.4434 56.3408 20.2473 55.7899 19.84C53.9559 18.0062 51.4685 16.9761 48.8749 16.9761C46.2814 16.9761 43.794 18.0062 41.9599 19.84C40.1286 21.6754 39.1001 24.1623 39.1001 26.755C39.1001 29.3478 40.1286 31.8347 41.9599 33.67C43.794 35.5038 46.2814 36.534 48.8749 36.534C51.4685 36.534 53.9559 35.5038 55.7899 33.67C56.3408 33.2627 57.0196 33.0667 57.7028 33.1176C58.3859 33.1685 59.0282 33.463 59.5126 33.9474C59.997 34.4318 60.2915 35.074 60.3424 35.7572C60.3933 36.4404 60.1972 37.1192 59.7899 37.67C57.1852 40.2859 53.7319 41.8855 50.0522 42.1807C46.3725 42.4759 42.7084 41.4472 39.7199 39.28L39.7599 39.41Z" fill="#7F64FA"/>
</g>
<defs>
<linearGradient id="paint0_linear_21_1063" x1="45.45" y1="0.000104539" x2="45.45" y2="53.5701" gradientUnits="userSpaceOnUse">
<stop stop-color="#E592FB"/>
<stop offset="1" stop-color="#A500F9"/>
</linearGradient>
<clipPath id="clip0_21_1063">
<rect width="103.26" height="76.84" fill="white"/>
</clipPath>
</defs>
</svg>
