<svg width="17" height="17" viewBox="0 0 17 17" fill="none" xmlns="http://www.w3.org/2000/svg">
<g clip-path="url(#clip0_58_4263)">
<path d="M9.83333 13.469H13.1667V4.1357H3.83333V13.469H8.5V10.1357H7.16667V8.80237H8.5V7.6997C8.5 6.80837 8.59333 6.48503 8.76667 6.15903C8.93741 5.83649 9.20131 5.57283 9.524 5.40237C9.77867 5.2657 10.0953 5.1837 10.6487 5.14837C10.868 5.13437 11.152 5.1517 11.5007 5.2017V6.46837H11.1667C10.5553 6.46837 10.3027 6.49704 10.152 6.5777C10.0621 6.62394 9.9889 6.69713 9.94267 6.78703C9.86267 6.9377 9.83333 7.08704 9.83333 7.69904V8.80237H11.5L11.1667 10.1357H9.83333V13.469ZM3.16667 2.80237H13.8333C14.0101 2.80237 14.1797 2.87261 14.3047 2.99763C14.4298 3.12265 14.5 3.29222 14.5 3.46903V14.1357C14.5 14.3125 14.4298 14.4821 14.3047 14.6071C14.1797 14.7321 14.0101 14.8024 13.8333 14.8024H3.16667C2.98986 14.8024 2.82029 14.7321 2.69526 14.6071C2.57024 14.4821 2.5 14.3125 2.5 14.1357V3.46903C2.5 3.29222 2.57024 3.12265 2.69526 2.99763C2.82029 2.87261 2.98986 2.80237 3.16667 2.80237Z" fill="#B7B7B7"/>
</g>
<defs>
<clipPath id="clip0_58_4263">
<rect width="16" height="16" fill="white" transform="translate(0.5 0.802368)"/>
</clipPath>
</defs>
</svg>
