<svg width="14" height="14" viewBox="0 0 14 14" fill="none" xmlns="http://www.w3.org/2000/svg">
<path d="M0.606445 7.34288C0.606819 8.92392 1.1711 10.453 2.19787 11.6552C3.22464 12.8575 4.64656 13.6541 6.20806 13.9019V9.26165H4.52366V7.34288H6.21005V5.88223C6.17281 5.54036 6.21131 5.19449 6.3228 4.86917C6.43429 4.54386 6.61605 4.24709 6.85516 3.99993C7.09427 3.75277 7.38486 3.56129 7.70631 3.4391C8.02775 3.3169 8.37216 3.26698 8.71508 3.29288C9.21303 3.30085 9.71098 3.34534 10.2023 3.42567V5.05829H9.36308C9.22044 5.0396 9.07544 5.05321 8.93877 5.09811C8.8021 5.143 8.67727 5.21804 8.57351 5.31766C8.46974 5.41729 8.38968 5.53896 8.33926 5.67368C8.28884 5.80841 8.26933 5.95274 8.28219 6.09601V7.34288H10.122L9.82783 9.26232H8.28219V13.9019C9.53545 13.7038 10.7057 13.1508 11.6544 12.3083C12.6031 11.4658 13.2906 10.3691 13.6353 9.148C13.9801 7.92693 13.9678 6.63264 13.5998 5.41836C13.2318 4.20409 12.5236 3.12068 11.559 2.29641C10.5943 1.47215 9.41375 0.94154 8.15695 0.767413C6.90014 0.593286 5.61976 0.782932 4.46739 1.3139C3.31502 1.84486 2.33893 2.69491 1.65467 3.7634C0.97041 4.83189 0.606647 6.07407 0.606445 7.34288Z" fill="#F7F7F7"/>
</svg>
