<svg width="47" height="46" viewBox="0 0 47 46" fill="none" xmlns="http://www.w3.org/2000/svg">
<path d="M16.9793 43.01C16.6851 42.8859 16.4406 42.6673 16.2844 42.3888C16.1283 42.1102 16.0693 41.7877 16.1168 41.4719L18.733 24.4375H11.7899C11.5698 24.4434 11.3512 24.3987 11.1511 24.3068C10.951 24.2149 10.7747 24.0782 10.6358 23.9074C10.4969 23.7365 10.3991 23.536 10.35 23.3214C10.3008 23.1067 10.3017 22.8837 10.3524 22.6694L14.6649 3.9819C14.7408 3.66029 14.9251 3.37464 15.187 3.17304C15.4488 2.97144 15.7721 2.86619 16.1024 2.87503H30.4774C30.6921 2.8743 30.9043 2.92169 31.0984 3.01373C31.2924 3.10577 31.4633 3.24012 31.5986 3.4069C31.7358 3.57556 31.833 3.77316 31.8828 3.9848C31.9326 4.19644 31.9337 4.41663 31.8861 4.62878L29.3993 15.8125H36.2274C36.4968 15.812 36.7609 15.8872 36.9897 16.0295C37.2184 16.1718 37.4026 16.3756 37.5211 16.6175C37.6241 16.8497 37.6638 17.1051 37.636 17.3576C37.6082 17.6101 37.514 17.8508 37.363 18.055L18.6755 42.4925C18.5492 42.6797 18.3806 42.8346 18.1833 42.9445C17.986 43.0544 17.7656 43.1162 17.5399 43.125C17.3475 43.1214 17.1575 43.0825 16.9793 43.01ZM25.8055 18.6875L28.6805 5.75003H17.2524L13.6011 21.5625H22.0968L19.8111 36.34L33.3524 18.6875H25.8055Z" fill="black"/>
</svg>
