<svg width="22" height="22" viewBox="0 0 22 22" fill="none" xmlns="http://www.w3.org/2000/svg">
<path d="M8.70879 3.66699C9.84872 3.66697 10.9647 3.99394 11.9244 4.60911C12.8841 5.22428 13.6472 6.10184 14.1231 7.13765C14.599 8.17347 14.7678 9.32407 14.6095 10.4529C14.4512 11.5818 13.9723 12.6416 13.2298 13.5065L18.4035 18.6802L17.7554 19.3282L12.5808 14.1537C11.851 14.7777 10.9812 15.2162 10.0455 15.4317C9.1097 15.6472 8.13573 15.6333 7.2065 15.3913C6.27726 15.1492 5.42028 14.6862 4.70856 14.0416C3.99683 13.397 3.45145 12.5899 3.11884 11.6891C2.78624 10.7883 2.67628 9.8205 2.79832 8.86804C2.92036 7.91559 3.2708 7.00674 3.81977 6.2189C4.36875 5.43107 5.10001 4.78758 5.95126 4.34325C6.80252 3.89893 7.74855 3.66692 8.70879 3.66699V3.66699ZM8.70879 4.58366C7.37166 4.58366 6.08929 5.11483 5.1438 6.06033C4.1983 7.00583 3.66713 8.28819 3.66713 9.62533C3.66713 10.9625 4.1983 12.2448 5.1438 13.1903C6.08929 14.1358 7.37166 14.667 8.70879 14.667C10.0459 14.667 11.3283 14.1358 12.2738 13.1903C13.2193 12.2448 13.7505 10.9625 13.7505 9.62533C13.7505 8.28819 13.2193 7.00583 12.2738 6.06033C11.3283 5.11483 10.0459 4.58366 8.70879 4.58366Z" fill="#130118"/>
</svg>
