<svg width="17" height="17" viewBox="0 0 17 17" fill="none" xmlns="http://www.w3.org/2000/svg">
<g clip-path="url(#clip0_58_4260)">
<path d="M8.50065 6.80253C7.97022 6.80253 7.46151 7.01325 7.08644 7.38832C6.71137 7.76339 6.50065 8.2721 6.50065 8.80253C6.50065 9.33297 6.71137 9.84167 7.08644 10.2167C7.46151 10.5918 7.97022 10.8025 8.50065 10.8025C9.03109 10.8025 9.53979 10.5918 9.91487 10.2167C10.2899 9.84167 10.5007 9.33297 10.5007 8.80253C10.5007 8.2721 10.2899 7.76339 9.91487 7.38832C9.53979 7.01325 9.03109 6.80253 8.50065 6.80253ZM8.50065 5.4692C9.38471 5.4692 10.2326 5.82039 10.8577 6.44551C11.4828 7.07063 11.834 7.91848 11.834 8.80253C11.834 9.68659 11.4828 10.5344 10.8577 11.1596C10.2326 11.7847 9.38471 12.1359 8.50065 12.1359C7.6166 12.1359 6.76875 11.7847 6.14363 11.1596C5.51851 10.5344 5.16732 9.68659 5.16732 8.80253C5.16732 7.91848 5.51851 7.07063 6.14363 6.44551C6.76875 5.82039 7.6166 5.4692 8.50065 5.4692ZM12.834 5.30253C12.834 5.52355 12.7462 5.73551 12.5899 5.89179C12.4336 6.04807 12.2217 6.13587 12.0007 6.13587C11.7796 6.13587 11.5677 6.04807 11.4114 5.89179C11.2551 5.73551 11.1673 5.52355 11.1673 5.30253C11.1673 5.08152 11.2551 4.86956 11.4114 4.71328C11.5677 4.557 11.7796 4.4692 12.0007 4.4692C12.2217 4.4692 12.4336 4.557 12.5899 4.71328C12.7462 4.86956 12.834 5.08152 12.834 5.30253ZM8.50065 3.4692C6.85132 3.4692 6.58199 3.47386 5.81465 3.50786C5.29199 3.53253 4.94132 3.60253 4.61599 3.7292C4.32665 3.8412 4.11799 3.9752 3.89598 4.19786C3.68732 4.39946 3.52689 4.64559 3.42665 4.91787C3.29998 5.24453 3.22998 5.59453 3.20598 6.11653C3.17132 6.85253 3.16732 7.10987 3.16732 8.80253C3.16732 10.4519 3.17198 10.7212 3.20598 11.4885C3.23065 12.0105 3.30065 12.3619 3.42665 12.6865C3.53998 12.9765 3.67332 13.1852 3.89465 13.4065C4.11932 13.6305 4.32799 13.7645 4.61465 13.8752C4.94399 14.0025 5.29465 14.0732 5.81465 14.0972C6.55065 14.1319 6.80799 14.1359 8.50065 14.1359C10.15 14.1359 10.4193 14.1312 11.1867 14.0972C11.708 14.0725 12.0593 14.0025 12.3847 13.8765C12.6733 13.7639 12.8833 13.6299 13.1047 13.4085C13.3293 13.1839 13.4633 12.9752 13.574 12.6885C13.7007 12.3599 13.7713 12.0085 13.7953 11.4885C13.83 10.7525 13.834 10.4952 13.834 8.80253C13.834 7.1532 13.8293 6.88387 13.7953 6.11653C13.7707 5.5952 13.7007 5.2432 13.574 4.91787C13.4735 4.64587 13.3134 4.39984 13.1053 4.19786C12.9038 3.9891 12.6577 3.82864 12.3853 3.72853C12.0587 3.60186 11.708 3.53186 11.1867 3.50786C10.4507 3.4732 10.1933 3.4692 8.50065 3.4692ZM8.50065 2.13586C10.312 2.13586 10.538 2.14253 11.2487 2.17586C11.9587 2.2092 12.442 2.32053 12.8673 2.48586C13.3073 2.6552 13.678 2.88453 14.0487 3.25453C14.3877 3.5878 14.65 3.99092 14.8173 4.43586C14.982 4.86053 15.094 5.34453 15.1273 6.05453C15.1587 6.7652 15.1673 6.9912 15.1673 8.80253C15.1673 10.6139 15.1607 10.8399 15.1273 11.5505C15.094 12.2605 14.982 12.7439 14.8173 13.1692C14.6504 13.6144 14.3881 14.0176 14.0487 14.3505C13.7153 14.6894 13.3122 14.9517 12.8673 15.1192C12.4427 15.2839 11.9587 15.3959 11.2487 15.4292C10.538 15.4605 10.312 15.4692 8.50065 15.4692C6.68932 15.4692 6.46332 15.4625 5.75265 15.4292C5.04265 15.3959 4.55932 15.2839 4.13399 15.1192C3.68887 14.9522 3.28567 14.6898 2.95265 14.3505C2.61359 14.0173 2.35127 13.6142 2.18398 13.1692C2.01865 12.7445 1.90732 12.2605 1.87398 11.5505C1.84265 10.8399 1.83398 10.6139 1.83398 8.80253C1.83398 6.9912 1.84065 6.7652 1.87398 6.05453C1.90732 5.34387 2.01865 4.8612 2.18398 4.43586C2.35081 3.99065 2.61319 3.58741 2.95265 3.25453C3.28577 2.91535 3.68894 2.65302 4.13399 2.48586C4.55932 2.32053 5.04199 2.2092 5.75265 2.17586C6.46332 2.14453 6.68932 2.13586 8.50065 2.13586Z" fill="#B7B7B7"/>
</g>
<defs>
<clipPath id="clip0_58_4260">
<rect width="16" height="16" fill="white" transform="translate(0.5 0.802368)"/>
</clipPath>
</defs>
</svg>
