<svg width="15" height="15" viewBox="0 0 15 15" fill="none" xmlns="http://www.w3.org/2000/svg">
<path d="M7.30132 3.55599C5.22765 3.55599 3.5541 5.22957 3.5541 7.30328C3.5541 9.37699 5.22765 11.0506 7.30132 11.0506C9.37498 11.0506 11.0485 9.37699 11.0485 7.30328C11.0485 5.22957 9.37498 3.55599 7.30132 3.55599ZM7.30132 9.73874C5.96028 9.73874 4.8659 8.64434 4.8659 7.30328C4.8659 5.96222 5.96028 4.86782 7.30132 4.86782C8.64235 4.86782 9.73673 5.96222 9.73673 7.30328C9.73673 8.64434 8.64235 9.73874 7.30132 9.73874ZM11.202 2.52919C10.7178 2.52919 10.3269 2.92018 10.3269 3.40435C10.3269 3.88851 10.7178 4.2795 11.202 4.2795C11.6862 4.2795 12.0771 3.89034 12.0771 3.40435C12.0773 3.28938 12.0548 3.17551 12.0108 3.06927C11.9669 2.96302 11.9024 2.86649 11.8211 2.78519C11.7399 2.7039 11.6433 2.63944 11.5371 2.59551C11.4308 2.55158 11.317 2.52904 11.202 2.52919ZM14.6057 7.30328C14.6057 6.29475 14.6149 5.29535 14.5582 4.28864C14.5016 3.11932 14.2349 2.08156 13.3798 1.2265C12.5229 0.369608 11.487 0.104686 10.3177 0.0480468C9.30921 -0.00859185 8.30983 0.000543447 7.30314 0.000543447C6.29463 0.000543447 5.29525 -0.00859185 4.28856 0.0480468C3.11927 0.104686 2.08152 0.371435 1.22647 1.2265C0.369602 2.08339 0.104684 3.11932 0.0480459 4.28864C-0.00859169 5.29717 0.000543436 6.29657 0.000543436 7.30328C0.000543436 8.30999 -0.00859169 9.31121 0.0480459 10.3179C0.104684 11.4872 0.371429 12.525 1.22647 13.3801C2.08335 14.2369 3.11927 14.5019 4.28856 14.5585C5.29708 14.6152 6.29645 14.606 7.30314 14.606C8.31166 14.606 9.31104 14.6152 10.3177 14.5585C11.487 14.5019 12.5248 14.2351 13.3798 13.3801C14.2367 12.5232 14.5016 11.4872 14.5582 10.3179C14.6167 9.31121 14.6057 8.31181 14.6057 7.30328ZM12.998 11.6115C12.8646 11.944 12.7038 12.1925 12.4462 12.4483C12.1886 12.7059 11.9419 12.8667 11.6094 13C10.6484 13.3819 8.36647 13.296 7.30132 13.296C6.23616 13.296 3.95239 13.3819 2.99138 13.0019C2.65886 12.8685 2.41038 12.7077 2.1546 12.4501C1.89699 12.1925 1.73621 11.9458 1.60284 11.6133C1.22282 10.6504 1.30869 8.36845 1.30869 7.30328C1.30869 6.23811 1.22282 3.95429 1.60284 2.99326C1.73621 2.66073 1.89699 2.41226 2.1546 2.15647C2.41221 1.90068 2.65886 1.73807 2.99138 1.6047C3.95239 1.22467 6.23616 1.31054 7.30132 1.31054C8.36647 1.31054 10.6502 1.22467 11.6113 1.6047C11.9438 1.73807 12.1922 1.89885 12.448 2.15647C12.7056 2.41408 12.8664 2.66073 12.9998 2.99326C13.3798 3.95429 13.2939 6.23811 13.2939 7.30328C13.2939 8.36845 13.3798 10.6504 12.998 11.6115Z" fill="#F7F7F7"/>
</svg>
