<svg width="17" height="17" viewBox="0 0 17 17" fill="none" xmlns="http://www.w3.org/2000/svg">
<g clip-path="url(#clip0_58_4266)">
<path d="M13.5713 5.46554C13.5207 5.26687 13.3767 5.11687 13.212 5.07087C12.9207 4.98887 11.5007 4.80221 8.50065 4.80221C5.50065 4.80221 4.08199 4.98887 3.78799 5.07087C3.62532 5.11621 3.48132 5.26621 3.42998 5.46554C3.35732 5.74821 3.16732 6.93287 3.16732 8.80221C3.16732 10.6715 3.35732 11.8555 3.42998 12.1395C3.48065 12.3375 3.62465 12.4875 3.78865 12.5329C4.08199 12.6155 5.50065 12.8022 8.50065 12.8022C11.5007 12.8022 12.92 12.6155 13.2133 12.5335C13.376 12.4882 13.52 12.3382 13.5713 12.1389C13.644 11.8562 13.834 10.6689 13.834 8.80221C13.834 6.93554 13.644 5.74887 13.5713 5.46554ZM14.8627 5.13421C15.1673 6.32221 15.1673 8.80221 15.1673 8.80221C15.1673 8.80221 15.1673 11.2822 14.8627 12.4702C14.6933 13.1269 14.198 13.6435 13.5707 13.8182C12.4313 14.1355 8.50065 14.1355 8.50065 14.1355C8.50065 14.1355 4.57199 14.1355 3.43065 13.8182C2.80065 13.6409 2.30598 13.1249 2.13865 12.4702C1.83398 11.2822 1.83398 8.80221 1.83398 8.80221C1.83398 8.80221 1.83398 6.32221 2.13865 5.13421C2.30798 4.47754 2.80332 3.96087 3.43065 3.78621C4.57199 3.46887 8.50065 3.46887 8.50065 3.46887C8.50065 3.46887 12.4313 3.46887 13.5707 3.78621C14.2007 3.96354 14.6953 4.47954 14.8627 5.13421ZM7.16732 11.1355V6.46887L11.1673 8.80221L7.16732 11.1355Z" fill="#B7B7B7"/>
</g>
<defs>
<clipPath id="clip0_58_4266">
<rect width="16" height="16" fill="white" transform="translate(0.5 0.802368)"/>
</clipPath>
</defs>
</svg>
